<svg id="mermaid-architecture-hybrid" width="100%" xmlns="http://www.w3.org/2000/svg" style="max-width: 634.0397338867188px;" viewBox="-275.0198669433594 -166.07540130615234 634.0397338867188 463.15081787109375" role="graphics-document document" aria-roledescription="architecture"><style>#mermaid-architecture-hybrid{font-family:Arial;font-size:16px;fill:#333;}@keyframes edge-animation-frame{from{stroke-dashoffset:0;}}@keyframes dash{to{stroke-dashoffset:0;}}#mermaid-architecture-hybrid .edge-animation-slow{stroke-dasharray:9,5!important;stroke-dashoffset:900;animation:dash 50s linear infinite;stroke-linecap:round;}#mermaid-architecture-hybrid .edge-animation-fast{stroke-dasharray:9,5!important;stroke-dashoffset:900;animation:dash 20s linear infinite;stroke-linecap:round;}#mermaid-architecture-hybrid .error-icon{fill:#552222;}#mermaid-architecture-hybrid .error-text{fill:#552222;stroke:#552222;}#mermaid-architecture-hybrid .edge-thickness-normal{stroke-width:1px;}#mermaid-architecture-hybrid .edge-thickness-thick{stroke-width:3.5px;}#mermaid-architecture-hybrid .edge-pattern-solid{stroke-dasharray:0;}#mermaid-architecture-hybrid .edge-thickness-invisible{stroke-width:0;fill:none;}#mermaid-architecture-hybrid .edge-pattern-dashed{stroke-dasharray:3;}#mermaid-architecture-hybrid .edge-pattern-dotted{stroke-dasharray:2;}#mermaid-architecture-hybrid .marker{fill:#333333;stroke:#333333;}#mermaid-architecture-hybrid .marker.cross{stroke:#333333;}#mermaid-architecture-hybrid svg{font-family:Arial;font-size:16px;}#mermaid-architecture-hybrid p{margin:0;}#mermaid-architecture-hybrid .edge{stroke-width:3;stroke:#333333;fill:none;}#mermaid-architecture-hybrid .arrow{fill:#333333;}#mermaid-architecture-hybrid .node-bkg{fill:none;stroke:hsl(240, 60%, 86.2745098039%);stroke-width:2px;stroke-dasharray:8;}#mermaid-architecture-hybrid .node-icon-text{display:flex;align-items:center;}#mermaid-architecture-hybrid .node-icon-text>div{color:#fff;margin:1px;height:fit-content;text-align:center;overflow:hidden;display:-webkit-box;-webkit-box-orient:vertical;}#mermaid-architecture-hybrid .node .neo-node{stroke:#9370DB;}#mermaid-architecture-hybrid [data-look="neo"].node rect,#mermaid-architecture-hybrid [data-look="neo"].cluster rect,#mermaid-architecture-hybrid [data-look="neo"].node polygon{stroke:#9370DB;filter:drop-shadow(1px 2px 2px rgba(185, 185, 185, 1));}#mermaid-architecture-hybrid [data-look="neo"].node path{stroke:#9370DB;stroke-width:1px;}#mermaid-architecture-hybrid [data-look="neo"].node .outer-path{filter:drop-shadow(1px 2px 2px rgba(185, 185, 185, 1));}#mermaid-architecture-hybrid [data-look="neo"].node .neo-line path{stroke:#9370DB;filter:none;}#mermaid-architecture-hybrid [data-look="neo"].node circle{stroke:#9370DB;filter:drop-shadow(1px 2px 2px rgba(185, 185, 185, 1));}#mermaid-architecture-hybrid [data-look="neo"].node circle .state-start{fill:#000000;}#mermaid-architecture-hybrid [data-look="neo"].icon-shape .icon{fill:#9370DB;filter:drop-shadow(1px 2px 2px rgba(185, 185, 185, 1));}#mermaid-architecture-hybrid [data-look="neo"].icon-shape .icon-neo path{stroke:#9370DB;filter:drop-shadow(1px 2px 2px rgba(185, 185, 185, 1));}#mermaid-architecture-hybrid :root{--mermaid-font-family:Arial;}</style><g></g><g class="architecture-edges"><g><path d="M -155.01987397671917,-43.575403695733314 L -79.69999722944954,-43.575403695733314 L-4.380120482179876,-43.575403695733314 " class="edge" id="mermaid-architecture-hybrid-L_internet_api_0"></path><polygon points="13.333333333333334,6.666666666666667 0,13.333333333333334 0,0" transform="translate(-15.713453815513212,-50.24207036239998)" class="arrow"></polygon></g><g><path d="M 75.61987951782012,-43.575403695733314 L 136.06987674726966,-43.575403695733314 L196.5198739767192,-43.575403695733314 " class="edge" id="mermaid-architecture-hybrid-L_api_db_0"></path><polygon points="13.333333333333334,6.666666666666667 0,13.333333333333334 0,0" transform="translate(185.18654064338585,-50.24207036239998)" class="arrow"></polygon></g><g><path d="M 35.61987951782012,-3.575403695733314 L 35.61987951782012,57.000000000000014 L35.61987951782012,117.57540369573334 " class="edge" id="mermaid-architecture-hybrid-L_api_disk_0"></path><polygon points="0,0 13.333333333333334,0 6.666666666666667,13.333333333333334" transform="translate(28.95321285115345,106.24207036240001)" class="arrow"></polygon></g></g><g class="architecture-services"><g id="mermaid-architecture-hybrid-service-api" class="architecture-service" transform="translate(-4.380120482179883,-83.57540369573331)"><g dy="1em" alignment-baseline="middle" dominant-baseline="middle" text-anchor="middle" transform="translate(40, 80)"><g><rect class="background" style="stroke: none"></rect><text y="-10.1" style=""><tspan class="text-outer-tspan row" x="0" y="-0.1em" dy="1.1em"><tspan font-style="normal" class="text-inner-tspan" font-weight="normal">API</tspan></tspan></text></g></g><g><g><svg xmlns="http://www.w3.org/2000/svg" width="80" height="80" viewBox="0 0 80 80"><g><rect width="80" height="80" style="fill: #087ebf; stroke-width: 0px;"></rect><rect x="17.5" y="17.5" width="45" height="45" rx="2" ry="2" style="fill: none; stroke: #fff; stroke-miterlimit: 10; stroke-width: 2px;"></rect><line x1="17.5" y1="32.5" x2="62.5" y2="32.5" style="fill: none; stroke: #fff; stroke-miterlimit: 10; stroke-width: 2px;"></line><line x1="17.5" y1="47.5" x2="62.5" y2="47.5" style="fill: none; stroke: #fff; stroke-miterlimit: 10; stroke-width: 2px;"></line><g><path d="m56.25,25c0,.27-.45.5-1,.5h-10.5c-.55,0-1-.23-1-.5s.45-.5,1-.5h10.5c.55,0,1,.23,1,.5Z" style="fill: #fff; stroke-width: 0px;"></path><path d="m56.25,25c0,.27-.45.5-1,.5h-10.5c-.55,0-1-.23-1-.5s.45-.5,1-.5h10.5c.55,0,1,.23,1,.5Z" style="fill: none; stroke: #fff; stroke-miterlimit: 10;"></path></g><g><path d="m56.25,40c0,.27-.45.5-1,.5h-10.5c-.55,0-1-.23-1-.5s.45-.5,1-.5h10.5c.55,0,1,.23,1,.5Z" style="fill: #fff; stroke-width: 0px;"></path><path d="m56.25,40c0,.27-.45.5-1,.5h-10.5c-.55,0-1-.23-1-.5s.45-.5,1-.5h10.5c.55,0,1,.23,1,.5Z" style="fill: none; stroke: #fff; stroke-miterlimit: 10;"></path></g><g><path d="m56.25,55c0,.27-.45.5-1,.5h-10.5c-.55,0-1-.23-1-.5s.45-.5,1-.5h10.5c.55,0,1,.23,1,.5Z" style="fill: #fff; stroke-width: 0px;"></path><path d="m56.25,55c0,.27-.45.5-1,.5h-10.5c-.55,0-1-.23-1-.5s.45-.5,1-.5h10.5c.55,0,1,.23,1,.5Z" style="fill: none; stroke: #fff; stroke-miterlimit: 10;"></path></g><g><circle cx="32.5" cy="25" r=".75" style="fill: #fff; stroke: #fff; stroke-miterlimit: 10;"></circle><circle cx="27.5" cy="25" r=".75" style="fill: #fff; stroke: #fff; stroke-miterlimit: 10;"></circle><circle cx="22.5" cy="25" r=".75" style="fill: #fff; stroke: #fff; stroke-miterlimit: 10;"></circle></g><g><circle cx="32.5" cy="40" r=".75" style="fill: #fff; stroke: #fff; stroke-miterlimit: 10;"></circle><circle cx="27.5" cy="40" r=".75" style="fill: #fff; stroke: #fff; stroke-miterlimit: 10;"></circle><circle cx="22.5" cy="40" r=".75" style="fill: #fff; stroke: #fff; stroke-miterlimit: 10;"></circle></g><g><circle cx="32.5" cy="55" r=".75" style="fill: #fff; stroke: #fff; stroke-miterlimit: 10;"></circle><circle cx="27.5" cy="55" r=".75" style="fill: #fff; stroke: #fff; stroke-miterlimit: 10;"></circle><circle cx="22.5" cy="55" r=".75" style="fill: #fff; stroke: #fff; stroke-miterlimit: 10;"></circle></g></g></svg></g></g></g><g id="mermaid-architecture-hybrid-service-db" class="architecture-service" transform="translate(196.5198739767192,-83.57540369573331)"><g dy="1em" alignment-baseline="middle" dominant-baseline="middle" text-anchor="middle" transform="translate(40, 80)"><g><rect class="background" style="stroke: none"></rect><text y="-10.1" style=""><tspan class="text-outer-tspan row" x="0" y="-0.1em" dy="1.1em"><tspan font-style="normal" class="text-inner-tspan" font-weight="normal">Database</tspan></tspan></text></g></g><g><g><svg xmlns="http://www.w3.org/2000/svg" width="80" height="80" viewBox="0 0 80 80"><g><rect width="80" height="80" style="fill: #087ebf; stroke-width: 0px;"></rect><path id="IconifyId1a07e475c8ceb2ad90" data-name="4" d="m20,57.86c0,3.94,8.95,7.14,20,7.14s20-3.2,20-7.14" style="fill: none; stroke: #fff; stroke-miterlimit: 10; stroke-width: 2px;"></path><path id="IconifyId1a07e475c8ceb2ad91" data-name="3" d="m20,45.95c0,3.94,8.95,7.14,20,7.14s20-3.2,20-7.14" style="fill: none; stroke: #fff; stroke-miterlimit: 10; stroke-width: 2px;"></path><path id="IconifyId1a07e475c8ceb2ad92" data-name="2" d="m20,34.05c0,3.94,8.95,7.14,20,7.14s20-3.2,20-7.14" style="fill: none; stroke: #fff; stroke-miterlimit: 10; stroke-width: 2px;"></path><ellipse id="IconifyId1a07e475c8ceb2ad93" data-name="1" cx="40" cy="22.14" rx="20" ry="7.14" style="fill: none; stroke: #fff; stroke-miterlimit: 10; stroke-width: 2px;"></ellipse><line x1="20" y1="57.86" x2="20" y2="22.14" style="fill: none; stroke: #fff; stroke-miterlimit: 10; stroke-width: 2px;"></line><line x1="60" y1="57.86" x2="60" y2="22.14" style="fill: none; stroke: #fff; stroke-miterlimit: 10; stroke-width: 2px;"></line></g></svg></g></g></g><g id="mermaid-architecture-hybrid-service-disk" class="architecture-service" transform="translate(-4.380120482179883,117.57540369573334)"><g dy="1em" alignment-baseline="middle" dominant-baseline="middle" text-anchor="middle" transform="translate(40, 80)"><g><rect class="background" style="stroke: none"></rect><text y="-10.1" style=""><tspan class="text-outer-tspan row" x="0" y="-0.1em" dy="1.1em"><tspan font-style="normal" class="text-inner-tspan" font-weight="normal">Storage</tspan></tspan></text></g></g><g><g><svg xmlns="http://www.w3.org/2000/svg" width="80" height="80" viewBox="0 0 80 80"><g><rect width="80" height="80" style="fill: #087ebf; stroke-width: 0px;"></rect><rect x="20" y="15" width="40" height="50" rx="1" ry="1" style="fill: none; stroke: #fff; stroke-miterlimit: 10; stroke-width: 2px;"></rect><ellipse cx="24" cy="19.17" rx=".8" ry=".83" style="fill: none; stroke: #fff; stroke-miterlimit: 10; stroke-width: 2px;"></ellipse><ellipse cx="56" cy="19.17" rx=".8" ry=".83" style="fill: none; stroke: #fff; stroke-miterlimit: 10; stroke-width: 2px;"></ellipse><ellipse cx="24" cy="60.83" rx=".8" ry=".83" style="fill: none; stroke: #fff; stroke-miterlimit: 10; stroke-width: 2px;"></ellipse><ellipse cx="56" cy="60.83" rx=".8" ry=".83" style="fill: none; stroke: #fff; stroke-miterlimit: 10; stroke-width: 2px;"></ellipse><ellipse cx="40" cy="33.75" rx="14" ry="14.58" style="fill: none; stroke: #fff; stroke-miterlimit: 10; stroke-width: 2px;"></ellipse><ellipse cx="40" cy="33.75" rx="4" ry="4.17" style="fill: #fff; stroke: #fff; stroke-miterlimit: 10; stroke-width: 2px;"></ellipse><path d="m37.51,42.52l-4.83,13.22c-.26.71-1.1,1.02-1.76.64l-4.18-2.42c-.66-.38-.81-1.26-.33-1.84l9.01-10.8c.88-1.05,2.56-.08,2.09,1.2Z" style="fill: #fff; stroke-width: 0px;"></path></g></svg></g></g></g><g id="mermaid-architecture-hybrid-service-internet" class="architecture-service" transform="translate(-235.01987397671917,-83.57540369573331)"><g dy="1em" alignment-baseline="middle" dominant-baseline="middle" text-anchor="middle" transform="translate(40, 80)"><g><rect class="background" style="stroke: none"></rect><text y="-10.1" style=""><tspan class="text-outer-tspan row" x="0" y="-0.1em" dy="1.1em"><tspan font-style="normal" class="text-inner-tspan" font-weight="normal">Internet</tspan></tspan></text></g></g><g><g><svg xmlns="http://www.w3.org/2000/svg" width="80" height="80" viewBox="0 0 80 80"><g><rect width="80" height="80" style="fill: #087ebf; stroke-width: 0px;"></rect><circle cx="40" cy="40" r="22.5" style="fill: none; stroke: #fff; stroke-miterlimit: 10; stroke-width: 2px;"></circle><line x1="40" y1="17.5" x2="40" y2="62.5" style="fill: none; stroke: #fff; stroke-miterlimit: 10; stroke-width: 2px;"></line><line x1="17.5" y1="40" x2="62.5" y2="40" style="fill: none; stroke: #fff; stroke-miterlimit: 10; stroke-width: 2px;"></line><path d="m39.99,17.51c-15.28,11.1-15.28,33.88,0,44.98" style="fill: none; stroke: #fff; stroke-miterlimit: 10; stroke-width: 2px;"></path><path d="m40.01,17.51c15.28,11.1,15.28,33.88,0,44.98" style="fill: none; stroke: #fff; stroke-miterlimit: 10; stroke-width: 2px;"></path><line x1="19.75" y1="30.1" x2="60.25" y2="30.1" style="fill: none; stroke: #fff; stroke-miterlimit: 10; stroke-width: 2px;"></line><line x1="19.75" y1="49.9" x2="60.25" y2="49.9" style="fill: none; stroke: #fff; stroke-miterlimit: 10; stroke-width: 2px;"></line></g></svg></g></g></g></g><g class="architecture-groups"><rect id="mermaid-architecture-hybrid-group-cloud" x="-46.880120482179876" y="-126.07540369573331" width="365.8999944588991" height="383.1508073914666" class="node-bkg"></rect><g><g transform="translate(-45.880120482179876, -125.07540369573331)"><g><svg xmlns="http://www.w3.org/2000/svg" width="30" height="30" viewBox="0 0 80 80"><g><rect width="80" height="80" style="fill: #087ebf; stroke-width: 0px;"></rect><path d="m65,47.5c0,2.76-2.24,5-5,5H20c-2.76,0-5-2.24-5-5,0-1.87,1.03-3.51,2.56-4.36-.04-.21-.06-.42-.06-.64,0-2.6,2.48-4.74,5.65-4.97,1.65-4.51,6.34-7.76,11.85-7.76.86,0,1.69.08,2.5.23,2.09-1.57,4.69-2.5,7.5-2.5,6.1,0,11.19,4.38,12.28,10.17,2.14.56,3.72,2.51,3.72,4.83,0,.03,0,.07-.01.1,2.29.46,4.01,2.48,4.01,4.9Z" style="fill: none; stroke: #fff; stroke-miterlimit: 10; stroke-width: 2px;"></path></g></svg></g></g><g dy="1em" alignment-baseline="middle" dominant-baseline="start" text-anchor="start" transform="translate(-12.880120482179876, -119.07540369573331)"><g><rect class="background" style="stroke: none"></rect><text y="-10.1" style=""><tspan class="text-outer-tspan row" x="0" y="-0.1em" dy="1.1em"><tspan font-style="normal" class="text-inner-tspan" font-weight="normal">Cloud</tspan></tspan></text></g></g></g></g></svg>